<!DOCTYPE svg PUBLIC "-//W3C//DTD SVG 1.1//EN" "http://www.w3.org/Graphics/SVG/1.1/DTD/svg11.dtd">
<!-- Uploaded to: SVG Repo, www.svgrepo.com, Transformed by: SVG Repo Mixer Tools -->
<svg fill="#ffffff" width="800px" height="800px" viewBox="-518.4 -518.4 2956.80 2956.80" xmlns="http://www.w3.org/2000/svg" stroke="#ffffff">
<g id="SVGRepo_bgCarrier" stroke-width="0">
<rect x="-518.4" y="-518.4" width="2956.80" height="2956.80" rx="591.36" fill="#df7c2a" strokewidth="0"/>
</g>
<g id="SVGRepo_tracerCarrier" stroke-linecap="round" stroke-linejoin="round"/>
<g id="SVGRepo_iconCarrier"> <path d="M0 426.667C0 191.025 191.025 0 426.667 0c235.641 0 426.666 191.025 426.666 426.667 0 235.641-191.025 426.666-426.666 426.666C191.025 853.333 0 662.308 0 426.667zm853.333 640.003V1920H0v-853.33h853.333zM1360 1920v-346.67h-346.67v-160H1360v-346.66h160v346.66h346.67v160H1520V1920h-160zm560-1066.667L1440 0 960 853.333h960z"/> </g>
</svg>